Coordinates
version=1
nRows=13
nColumns=36
inDegrees=yes

Units are S.I. units (second, meters, Newtons, ...)
If the header above contains a line with 'inDegrees', this indicates whether rotational values are in degrees (yes) or radians (no).

endheader
time	pelvis_tilt	pelvis_list	pelvis_rotation	pelvis_tx	pelvis_ty	pelvis_tz	hip_flexion_r	hip_adduction_r	hip_rotation_r	knee_angle_r	knee_angle_r_beta	ankle_angle_r	subtalar_angle_r	mtp_angle_r	hip_flexion_l	hip_adduction_l	hip_rotation_l	knee_angle_l	knee_angle_l_beta	ankle_angle_l	subtalar_angle_l	mtp_angle_l	lumbar_extension	lumbar_bending	lumbar_rotation	arm_flex_r	arm_add_r	arm_rot_r	elbow_flex_r	pro_sup_r	arm_flex_l	arm_add_l	arm_rot_l	elbow_flex_l	pro_sup_l
      8.80000000	     -4.12661299	     -0.18361464	      1.27914713	     -0.12154044	      0.88695980	      0.09705281	      5.22365250	     -5.14109234	    -18.73997018	      3.47234292	      0.06060382	      0.76772990	     -2.19567759	     -7.49999987	      4.87812174	     -6.87413031	    -19.02826289	      3.04690501	      0.05317852	      6.19935299	      4.80869114	     -7.49999987	      3.77738076	     -0.87126247	      1.46030102	     36.19739685	     10.19730540	     63.87102546	    143.00694627	     99.32846337	     47.39770680	     13.62000234	     68.36810189	    127.04965080	     77.37172725
      8.81666670	     -4.18461147	     -0.20626801	      1.35567305	     -0.12084832	      0.88791550	      0.09710248	      5.54068541	     -5.18541372	    -18.69721076	      3.85153201	      0.06722191	      0.66070974	     -2.36691326	     -7.49999987	      5.25792925	     -6.96687088	    -18.71333558	      3.50785591	      0.06122364	      6.07200789	      4.37843059	     -7.49999987	      3.67617095	     -0.87687072	      1.31069707	     36.85548838	     10.17632971	     65.03136794	    143.20931122	     97.35142646	     47.57479771	     13.61796097	     68.37731675	    126.79826358	     75.87808702
      8.83333330	     -4.26948104	     -0.21860000	      1.41561033	     -0.12320884	      0.88799005	      0.09691489	      5.93077305	     -5.25029275	    -18.49608834	      4.25110523	      0.07419578	      0.62598571	     -2.74334835	     -7.49999987	      5.74578392	     -7.04124648	    -18.37200608	      3.97709842	      0.06941346	      6.01484146	      3.84349426	     -7.49999987	      3.47114918	     -0.83877632	      1.32623188	     37.51508712	     10.10098391	     65.94756449	    143.35919155	     94.28843800	     47.79594236	     13.54721178	     68.59517646	    126.96316543	     73.94829800
      8.85000000	     -4.38324087	     -0.27297078	      1.55526136	     -0.12374562	      0.88383057	      0.09702243	      6.30612528	     -5.27251489	    -18.50227468	      4.62093491	      0.08065053	      0.58817468	     -3.02135823	     -7.49999987	      6.21264214	     -7.18806952	    -18.33562761	      4.41062921	      0.07698000	      6.03668352	      3.70412890	     -7.49999987	      3.33526035	     -0.82175811	      1.44591502	     38.27449872	      9.95334198	     66.20996528	    143.53214081	    100.03478585	     48.09539336	     13.75299994	     68.54742177	    126.96547234	     76.79212224
      8.86666670	     -4.58155856	     -0.29537081	      1.65660913	     -0.12520324	      0.88307142	      0.09699924	      6.82854181	     -5.36240117	    -18.45198811	      5.08949781	      0.08882849	      0.61045164	     -3.33417663	     -7.49999987	      6.83379798	     -7.28486111	    -18.04485618	      4.90362655	      0.08558443	      6.13578119	      3.31399787	     -7.49999987	      3.17597216	     -0.83685889	      1.31392500	     39.13298755	      9.96132203	     66.59318582	    143.66873109	     98.69889201	     48.67978892	     13.75527411	     68.32701320	    126.97599823	     75.78255393
      8.88333330	     -4.76894734	     -0.34861339	      1.62983553	     -0.12751062	      0.88079514	      0.09660578	      7.49055871	     -5.40870698	    -18.44156201	      5.57661548	      0.09733030	      0.72238318	     -3.79732202	     -7.49999987	      7.50160058	     -7.44888076	    -17.94526242	      5.47348979	      0.09553042	      6.27199513	      2.85565140	     -7.49999987	      3.00513616	     -0.76855257	      1.04696081	     40.11696120	      9.99049546	     66.83148979	    143.73371661	     97.09593957	     49.36205022	     13.53975118	     67.73859605	    126.80204431	     74.75223744
      8.90000000	     -5.03514915	     -0.36429758	      1.64222518	     -0.12994037	      0.88231363	      0.09602183	      8.24886294	     -5.49815167	    -18.31442333	      6.09220356	      0.10632901	      0.82444259	     -4.27322061	     -7.49999987	      8.33228875	     -7.55633936	    -17.67953900	      6.14042793	      0.10717068	      6.41391513	      2.43240013	     -7.49999987	      2.80856855	     -0.73746591	      0.96384464	     40.91090135	      9.83801876	     67.21109425	    143.77304046	     94.66881072	     49.85801376	     13.42772995	     67.40584462	    126.69826775	     73.47350868
      8.91666670	     -5.26202717	     -0.37505805	      1.61541358	     -0.13102137	      0.88212835	      0.09683002	      9.03987662	     -5.59426903	    -18.07539304	      6.81453838	      0.11893613	      1.03320648	     -4.66293816	     -7.49999987	      9.12745815	     -7.71271277	    -17.58444259	      6.93375420	      0.12101684	      6.58324126	      2.26266866	     -7.49999987	      2.50542146	     -0.77327263	      0.86446513	     41.66600619	      9.73535326	     67.89363891	    143.76362228	    100.38216341	     50.19812248	     13.35615158	     67.17017870	    126.32429356	     77.18789686
      8.93333330	     -5.52600254	     -0.35914312	      1.58648830	     -0.13452537	      0.88348557	      0.09542791	      9.85594394	     -5.74208322	    -17.98479407	      7.45503132	      0.13011484	      1.04589065	     -5.09929518	     -7.49999987	     10.05765768	     -7.81008185	    -17.22254123	      7.80953844	      0.13630216	      6.68691268	      1.62975811	     -7.49999987	      2.10680748	     -0.78443590	      0.68688598	     42.41255668	      9.58456798	     68.72536507	    143.64247940	     95.41843428	     50.64139756	     13.20257392	     67.06049915	    126.13821954	     75.09721227
      8.95000000	     -5.91063326	     -0.38235277	      1.43227822	     -0.13499356	      0.88193228	      0.09665850	     10.65842267	     -5.82452032	    -18.05972122	      7.92347611	      0.13829075	      1.14414809	     -4.98445367	     -7.49999987	     11.13649290	     -8.02155109	    -16.99720634	      8.83978275	      0.15428331	      6.77784102	      1.11089138	     -7.49999987	      1.82039060	     -0.84176331	      1.01897290	     42.56937753	      9.11690119	     68.00147348	    142.78197609	    100.21977518	     50.60135406	     13.71072263	     67.35094157	    126.06786412	     76.38760143
      8.96666670	     -6.38528917	     -0.39749329	      1.23076624	     -0.13497131	      0.88314996	      0.09679450	     11.49018937	     -5.90479975	    -18.04635377	      8.34758311	      0.14569281	      1.01807747	     -4.94367751	     -7.49999987	     12.22684410	     -8.21312681	    -16.75778731	      9.77244410	      0.17056133	      6.72162778	      0.55306616	     -7.49999987	      1.71460220	     -0.79140369	      1.18255976	     43.02822834	      8.92891126	     68.57743493	    141.88471198	     94.40920966	     50.22872656	     13.85486418	     67.84649065	    126.45447831	     74.35975290
      8.98333330	     -6.56918644	     -0.42280631	      1.07828909	     -0.13630252	      0.88201471	      0.09736238	     11.93331082	     -5.95731048	    -18.10778751	      8.72906152	      0.15235086	      1.04775135	     -4.74340997	     -7.49999987	     13.04742063	     -8.44767259	    -16.51645320	     10.84614849	      0.18930100	      6.81608645	     -0.12295446	     -7.49999987	      1.24704382	     -0.81335162	      1.46286432	     43.48857759	      8.65281328	     68.76172566	    141.02711758	     91.51150924	     50.36685586	     14.12192510	     68.68019378	    126.53753174	     72.89821177
      9.00000000	     -7.01072670	     -0.47888746	      1.00317038	     -0.13847070	      0.87781556	      0.09880750	     12.78386232	     -6.01145686	    -18.16674258	      9.38569884	      0.16381135	      1.35920067	     -4.39835579	     -7.49999987	     14.20458368	     -8.75559281	    -16.31198587	     12.10309513	      0.21123886	      6.88086252	     -0.88454570	     -7.49999987	      1.02805163	     -0.75467194	      1.67027778	     43.95911443	      8.46980288	     68.51422738	    140.09243018	     98.66010596	     50.59912899	     14.26845102	     68.82511078	    126.63416644	     75.63496990
